<svg xmlns="http://www.w3.org/2000/svg" role="img" viewBox="-13.99 -13.99 727.48 195.48"><title>vCluster_logo.svg</title><defs><clipPath id="a"><path fill="none" d="M0 .04h700v167.79H0z"/></clipPath></defs><g clip-path="url(#a)"><path fill="#f60" fill-rule="evenodd" d="M184.01 4.73L145 73.59l-.24.42-18.13 32-22.27-39.28 25.92-45.61.02-.03c.36-.68.74-1.36 1.15-2.01v-.02l.02-.03C138.16 8.06 150.05.6 163.72.07c.52-.02 1.05-.03 1.57-.03s1.04 0 1.57.03c6.19.24 12.02 1.91 17.16 4.68zm-68.15 2.99L93.49 47.06H39.25c-12.95 0-25-6.39-32.28-16.93-.05-.07-.11-.16-.16-.23-.11-.16-.22-.32-.32-.48-.49-.73-.94-1.48-1.38-2.25l-.41-.72C1.7 20.92 0 14.6 0 7.87v-.15h115.86zm-1.09 126.15c0 14.57-7.99 27.26-19.84 33.96L56.53 100 37.65 66.67H82.4l26.97 47.4s.03.06.05.08l.27.47c.96 1.7 1.79 3.44 2.48 5.23l.12.3c1.61 4.26 2.49 8.89 2.49 13.72z"/><path fill="#050b24" d="M246.17 108.78l-12.94-39.46c-1.63-4.98-6.28-8.34-11.52-8.34h-8.24l22.89 62.47h19.39l23.11-62.47h-8.24c-5.24 0-9.89 3.36-11.52 8.34l-12.94 39.46h.01zM449.9 93.67c0 3.23-.57 6.12-1.69 8.68-1.13 2.56-2.74 4.56-4.85 6.03-2.11 1.47-4.58 2.2-7.44 2.2-4.13 0-7.48-1.37-10.04-4.12-2.56-2.74-3.83-6.63-3.83-11.67V60.96h-15.79v36.53c0 5.64.97 10.45 2.93 14.43 1.95 3.99 4.75 7.03 8.4 9.13 3.65 2.11 7.95 3.15 12.91 3.15 3.83 0 7.34-.96 10.54-2.88 3.19-1.92 5.82-4.9 7.89-8.96.35-.68.66-1.39.96-2.14v4.72c0 2.56.77 4.6 2.31 6.14s3.58 2.31 6.14 2.31h7.55V60.92h-16.01v32.73zm69.95-2.7c-2.67-1.36-5.5-2.42-8.52-3.21-3.01-.79-5.84-1.54-8.51-2.26-2.67-.71-4.85-1.58-6.55-2.59-1.69-1.02-2.54-2.46-2.54-4.35s.75-3.25 2.26-4.35c1.5-1.09 3.69-1.63 6.54-1.63 3.01 0 5.35.7 7.05 2.09 1.69 1.39 2.88 3.4 3.55 6.03l14.43-3.83c-.83-3.38-2.33-6.33-4.51-8.85-2.18-2.52-4.96-4.46-8.34-5.8-3.38-1.36-7.29-2.03-11.73-2.03-5.12 0-9.51.83-13.19 2.48-3.68 1.65-6.52 3.91-8.52 6.77-1.99 2.86-2.99 5.98-2.99 9.36 0 3.83.84 6.89 2.54 9.19 1.69 2.29 3.89 4.1 6.59 5.41 2.7 1.32 5.56 2.37 8.57 3.15 3.01.79 5.84 1.5 8.52 2.15 2.67.64 4.85 1.47 6.54 2.48 1.69 1.02 2.54 2.46 2.54 4.35s-.81 3.31-2.42 4.51c-1.61 1.2-4 1.81-7.16 1.81-2.7 0-5.07-.73-7.1-2.2-2.03-1.47-3.38-3.44-4.06-5.92l-14.89 3.38c.97 3.23 2.67 6.16 5.07 8.79 2.4 2.63 5.41 4.68 9.02 6.14 3.6 1.47 7.66 2.2 12.17 2.2 5.03 0 9.4-.83 13.07-2.48 3.68-1.65 6.54-3.89 8.57-6.71 2.03-2.81 3.04-5.92 3.04-9.3 0-3.83-.84-6.91-2.54-9.24-1.69-2.33-3.87-4.17-6.54-5.53h.03zm112.07 15.95c-1.99 1.47-4.15 2.61-6.48 3.44-2.33.82-4.74 1.24-7.21 1.24-2.86 0-5.53-.47-8-1.41-2.48-.94-4.57-2.27-6.26-4-1.69-1.73-2.76-3.6-3.21-5.64.22 0 .7.02 1.41.05.72.04 1.52.06 2.42.06s1.69.04 2.36.11c4.28.16 8.65-.06 13.08-.62 4.44-.57 8.52-1.61 12.24-3.16 3.72-1.54 6.71-3.62 8.97-6.26 2.26-2.63 3.38-5.9 3.38-9.81 0-3.01-.7-5.78-2.09-8.34-1.39-2.56-3.35-4.75-5.87-6.59-2.52-1.84-5.43-3.27-8.74-4.28-3.31-1.02-6.84-1.52-10.6-1.52-4.44 0-8.65.77-12.63 2.31-3.99 1.54-7.52 3.74-10.6 6.59-3.08 2.86-5.48 6.28-7.22 10.26-1.73 3.99-2.59 8.42-2.59 13.3s.84 9.04 2.54 12.91c1.69 3.87 4.05 7.2 7.1 9.97 3.04 2.79 6.61 4.92 10.71 6.43 4.1 1.5 8.55 2.25 13.36 2.25 3.91 0 7.66-.49 11.28-1.47 3.6-.97 6.99-2.5 10.15-4.57 3.15-2.06 5.94-4.68 8.34-7.84l-10.94-8.23c-1.27 1.73-2.92 3.33-4.9 4.79v.03zm-29.59-25.71c1.5-2.52 3.58-4.57 6.26-6.14 2.67-1.58 5.73-2.37 9.18-2.37 2.18 0 4.12.36 5.8 1.07 1.69.72 3.04 1.65 4.05 2.81 1.02 1.16 1.52 2.5 1.52 4 0 1.81-.66 3.29-1.97 4.46-1.31 1.16-3.04 2.06-5.19 2.7-2.15.64-4.47 1.07-6.99 1.29-2.52.22-5.01.34-7.5.34-1.5 0-2.93-.04-4.28-.11-1.36-.07-2.48-.15-3.38-.22.15-2.7.97-5.32 2.48-7.84zm-203.62 35.88c1.29 2.63 2.85 5.01 4.66 7.14h-16.52c-8.83 0-15.98-7.16-15.98-15.98V43.96h15.9v62.25c0 2.17 1.76 3.93 3.93 3.93h5.43c.66 2.47 1.51 4.78 2.58 6.96z"/><path fill="#050b24" d="M586.05 124.16c-4.24-3.88-7.59-8.56-9.93-13.93-.02-.04-.03-.07-.05-.11h-9.75c-2.28 0-4.13-1.85-4.13-4.13V73.93h14.32c2.26-4.94 5.33-9.3 9.18-12.96h-30.13c.42-.09.82-.21 1.19-.36.48-.17.93-.39 1.35-.65.33-.2.65-.43.94-.68.57-.49 1.07-1.03 1.5-1.61.3-.41.57-.85.81-1.32.08-.17.16-.33.23-.5.41-.96.61-1.93.61-2.89v-9.02H546.4v11.62c0 1.33-.31 2.44-.92 3.34-.15.22-.31.42-.49.61-.14.14-.28.27-.43.39-.89.72-2.04 1.07-3.46 1.07h-4.74v12.96h9.69v36.19c0 3.89 1.58 7.42 4.14 9.96 2.55 2.55 6.08 4.12 9.97 4.12h25.95s-.05-.04-.06-.06zm-241.5-29.04h16.86c-.44 1.73-.99 3.4-1.65 5.03-1.99 4.92-4.79 9.17-8.4 12.73-3.61 3.57-7.84 6.35-12.69 8.34-4.81 1.98-10.18 2.97-15.84 2.99-5.67-.02-10.89-1.01-15.7-2.99-4.85-1.99-9.07-4.77-12.69-8.34-3.61-3.57-6.41-7.82-8.4-12.73-2-4.92-2.99-10.32-2.99-16.18s1.01-11.24 3.04-16.13c2.03-4.89 4.85-9.11 8.45-12.69 3.61-3.58 7.84-6.33 12.69-8.29 4.8-1.93 10-2.92 15.59-2.92h.13c5.58.02 10.78.99 15.59 2.93 4.85 1.95 9.08 4.72 12.69 8.29 3.6 3.57 6.43 7.79 8.45 12.69.7 1.68 1.27 3.41 1.73 5.2h-16.85c-.36-.94-.77-1.84-1.23-2.72-2.03-3.83-4.83-6.82-8.4-8.97-3.47-2.09-7.43-3.15-11.87-3.21h-.37c-4.44.06-8.4 1.13-11.87 3.21-3.58 2.15-6.37 5.13-8.4 8.97-2.03 3.83-3.04 8.38-3.04 13.64s1 9.85 2.99 13.75c1.99 3.9 4.75 6.93 8.29 9.08 3.53 2.14 7.58 3.21 12.16 3.22 4.57 0 8.76-1.07 12.29-3.22 3.54-2.15 6.3-5.16 8.29-9.08.42-.83.81-1.71 1.14-2.61zm355.44-33.97l-6.65 14.2c-1.81-.83-3.86-1.24-6.14-1.24-2.9 0-5.42.74-7.55 2.23s-3.78 3.52-4.92 6.11c-1.14 2.59-1.71 5.52-1.71 8.8v33.13h-5.28c-6.06 0-10.96-4.91-10.96-10.96V61.08h7.66c2.59 0 4.67.78 6.23 2.34 1.57 1.56 2.35 3.64 2.35 6.22v4.79c.3-.75.62-1.48.97-2.16 2.1-4.12 4.77-7.14 8.01-9.08 3.24-1.94 6.81-2.92 10.7-2.92 2.61 0 5.05.28 7.31.86z"/></g></svg>